{
  "accessors": [
    {
      "bufferView": 2,
      "componentType": 5126,
      "count": 2655,
      "max": [
        1.610048770904541,
        1.753429651260376,
        2.268972635269165
      ],
      "min": [
        -3.1364097595214844,
        -1.3850135803222656,
        -2.268972635269165
      ],
      "type": "VEC3"
    },
    {
      "bufferView": 2,
      "byteOffset": 31860,
      "componentType": 5126,
      "count": 2655,
      "max": [
        0.9999583959579468,
        0.9994368553161621,
        0.99994957447052
      ],
      "min": [
        -0.9998843669891357,
        -0.9792128801345825,
        -0.9936358332633972
      ],
      "type": "VEC3"
    },
    {
      "bufferView": 1,
      "componentType": 5126,
      "count": 2655,
      "max": [
        0.975433349609375,
        0.9573984146118164
      ],
      "min": [
        0.011969318613409996,
        0.06801414489746094
      ],
      "type": "VEC2"
    },
    {
      "bufferView": 1,
      "byteOffset": 21240,
      "componentType": 5126,
      "count": 2655,
      "max": [
        0.975433349609375,
        0.9573984146118164
      ],
      "min": [
        0.011969318613409996,
        0.06801414489746094
      ],
      "type": "VEC2"
    },
    {
      "bufferView": 1,
      "byteOffset": 42480,
      "componentType": 5126,
      "count": 2655,
      "max": [
        0.975433349609375,
        0.9573984146118164
      ],
      "min": [
        0.011969318613409996,
        0.06801414489746094
      ],
      "type": "VEC2"
    },
    {
      "bufferView": 1,
      "byteOffset": 63720,
      "componentType": 5126,
      "count": 2655,
      "max": [
        0.975433349609375,
        0.9573984146118164
      ],
      "min": [
        0.011969318613409996,
        0.06801414489746094
      ],
      "type": "VEC2"
    },
    {
      "bufferView": 0,
      "componentType": 5125,
      "count": 3534,
      "type": "SCALAR"
    }
  ],
  "asset": {
    "extras": {
      "author": "Teshe (https://sketchfab.com/Teshe)",
      "license": "CC-BY-4.0 (http://creativecommons.org/licenses/by/4.0/)",
      "source": "https://sketchfab.com/3d-models/low-poly-firefly-stylized-fe25f86c9f0c41fcb180ce889f110ef0",
      "title": "Low-poly Firefly - Stylized"
    },
    "generator": "Sketchfab-15.0.0",
    "version": "2.0"
  },
  "bufferViews": [
    {
      "buffer": 0,
      "byteLength": 14136,
      "name": "floatBufferViews",
      "target": 34963
    },
    {
      "buffer": 0,
      "byteLength": 84960,
      "byteOffset": 14136,
      "byteStride": 8,
      "name": "floatBufferViews",
      "target": 34962
    },
    {
      "buffer": 0,
      "byteLength": 63720,
      "byteOffset": 99096,
      "byteStride": 12,
      "name": "floatBufferViews",
      "target": 34962
    }
  ],
  "buffers": [
    {
      "byteLength": 162816,
      "uri": "scene.bin"
    }
  ],
  "extensionsUsed": [
    "KHR_materials_specular"
  ],
  "images": [
    {
      "uri": "textures/Firefly_baseColor.png"
    },
    {
      "uri": "textures/Firefly_metallicRoughness.png"
    },
    {
      "uri": "textures/Firefly_emissive.png"
    },
    {
      "uri": "textures/Firefly_specularf0.png"
    }
  ],
  "materials": [
    {
      "doubleSided": true,
      "emissiveFactor": [
        1.0,
        1.0,
        1.0
      ],
      "emissiveTexture": {
        "index": 2
      },
      "extensions": {
        "KHR_materials_specular": {
          "specularColorFactor": [
            1.0,
            1.0,
            1.0
          ],
          "specularFactor": 1.0,
          "specularTexture": {
            "index": 3
          }
        }
      },
      "name": "Firefly",
      "pbrMetallicRoughness": {
        "baseColorTexture": {
          "index": 0
        },
        "metallicFactor": 0.4590043539841578,
        "metallicRoughnessTexture": {
          "index": 1
        },
        "roughnessFactor": 0.7387784364125968
      }
    }
  ],
  "meshes": [
    {
      "name": "Object_0",
      "primitives": [
        {
          "attributes": {
            "NORMAL": 1,
            "POSITION": 0,
            "TEXCOORD_0": 2,
            "TEXCOORD_1": 3,
            "TEXCOORD_2": 4,
            "TEXCOORD_3": 5
          },
          "indices": 6,
          "material": 0,
          "mode": 4
        }
      ]
    }
  ],
  "nodes": [
    {
      "children": [
        1
      ],
      "matrix": [
        1.0,
        0.0,
        0.0,
        0.0,
        0.0,
        2.220446049250313e-16,
        -1.0,
        0.0,
        0.0,
        1.0,
        2.220446049250313e-16,
        0.0,
        0.0,
        0.0,
        0.0,
        1.0
      ],
      "name": "Sketchfab_model"
    },
    {
      "children": [
        2
      ],
      "name": "root"
    },
    {
      "children": [
        3
      ],
      "matrix": [
        1.0,
        0.0,
        0.0,
        0.0,
        0.0,
        2.220446049250313e-16,
        1.0,
        0.0,
        0.0,
        -1.0,
        2.220446049250313e-16,
        0.0,
        0.0,
        0.0,
        0.0,
        1.0
      ],
      "name": "GLTF_SceneRootNode"
    },
    {
      "children": [
        4
      ],
      "name": "Firefly_0"
    },
    {
      "mesh": 0,
      "name": "Object_4"
    }
  ],
  "samplers": [
    {
      "magFilter": 9729,
      "minFilter": 9987,
      "wrapS": 10497,
      "wrapT": 10497
    }
  ],
  "scene": 0,
  "scenes": [
    {
      "name": "Sketchfab_Scene",
      "nodes": [
        0
      ]
    }
  ],
  "textures": [
    {
      "sampler": 0,
      "source": 0
    },
    {
      "sampler": 0,
      "source": 1
    },
    {
      "sampler": 0,
      "source": 2
    },
    {
      "sampler": 0,
      "source": 3
    }
  ]
}
