{
	"asset":{
		"generator":"Khronos glTF Blender I/O v4.2.69",
		"version":"2.0"
	},
	"scene":0,
	"scenes":[
		{
			"name":"Scene",
			"nodes":[
				0
			]
		}
	],
	"nodes":[
		{
			"mesh":0,
			"name":"Plane.001"
		}
	],
	"materials":[
		{
			"doubleSided":true,
			"name":"terrain"
		}
	],
	"meshes":[
		{
			"name":"Plane.001",
			"primitives":[
				{
					"attributes":{
						"POSITION":0,
						"NORMAL":1,
						"TEXCOORD_0":2
					},
					"indices":3,
					"material":0
				}
			]
		}
	],
	"accessors":[
		{
			"bufferView":0,
			"componentType":5126,
			"count":1085150,
			"max":[
				77.083251953125,
				19.672304153442383,
				122.1594009399414
			],
			"min":[
				-78.82478332519531,
				-1.0243349075317383,
				-113.43793487548828
			],
			"type":"VEC3"
		},
		{
			"bufferView":1,
			"componentType":5126,
			"count":1085150,
			"type":"VEC3"
		},
		{
			"bufferView":2,
			"componentType":5126,
			"count":1085150,
			"type":"VEC2"
		},
		{
			"bufferView":3,
			"componentType":5125,
			"count":2027520,
			"type":"SCALAR"
		}
	],
	"bufferViews":[
		{
			"buffer":0,
			"byteLength":13021800,
			"byteOffset":0,
			"target":34962
		},
		{
			"buffer":0,
			"byteLength":13021800,
			"byteOffset":13021800,
			"target":34962
		},
		{
			"buffer":0,
			"byteLength":8681200,
			"byteOffset":26043600,
			"target":34962
		},
		{
			"buffer":0,
			"byteLength":8110080,
			"byteOffset":34724800,
			"target":34963
		}
	],
	"buffers":[
		{
			"byteLength":42834880,
			"uri":"gameMapFix.bin"
		}
	]
}
