{
	"asset":{
		"generator":"Khronos glTF Blender I/O v5.0.21",
		"version":"2.0"
	},
	"scene":0,
	"scenes":[
		{
			"name":"Scene",
			"nodes":[
				0
			]
		}
	],
	"nodes":[
		{
			"mesh":0,
			"name":"Bush1_Bush1_1_0",
			"rotation":[
				-0.70710688829422,
				0,
				0,
				0.7071066498756409
			],
			"scale":[
				1.3478626012802124,
				1.347862720489502,
				1.347862720489502
			],
			"translation":[
				-2.2581593990325928,
				-0.0003288988664280623,
				1.353354573249817
			]
		}
	],
	"materials":[
		{
			"doubleSided":true,
			"name":"Bush1_1",
			"pbrMetallicRoughness":{
				"baseColorFactor":[
					0.21730700135231018,
					0.47699400782585144,
					0.05867990106344223,
					1
				],
				"metallicFactor":0,
				"roughnessFactor":0.9781099557876587
			}
		}
	],
	"meshes":[
		{
			"name":"Bush1_Bush1_1_0",
			"primitives":[
				{
					"attributes":{
						"POSITION":0,
						"NORMAL":1,
						"TEXCOORD_0":2
					},
					"indices":3,
					"material":0
				}
			]
		}
	],
	"accessors":[
		{
			"bufferView":0,
			"componentType":5126,
			"count":240,
			"max":[
				0.8474080562591553,
				1.041316270828247,
				1.837592363357544
			],
			"min":[
				-0.9790533185005188,
				-0.8473765254020691,
				-0.05793673172593117
			],
			"type":"VEC3"
		},
		{
			"bufferView":1,
			"componentType":5126,
			"count":240,
			"type":"VEC3"
		},
		{
			"bufferView":2,
			"componentType":5126,
			"count":240,
			"type":"VEC2"
		},
		{
			"bufferView":3,
			"componentType":5123,
			"count":240,
			"type":"SCALAR"
		}
	],
	"bufferViews":[
		{
			"buffer":0,
			"byteLength":2880,
			"byteOffset":0,
			"target":34962
		},
		{
			"buffer":0,
			"byteLength":2880,
			"byteOffset":2880,
			"target":34962
		},
		{
			"buffer":0,
			"byteLength":1920,
			"byteOffset":5760,
			"target":34962
		},
		{
			"buffer":0,
			"byteLength":480,
			"byteOffset":7680,
			"target":34963
		}
	],
	"buffers":[
		{
			"byteLength":8160,
			"uri":"bush2.bin"
		}
	]
}
