{
	"asset":{
		"generator":"Khronos glTF Blender I/O v5.0.21",
		"version":"2.0"
	},
	"scene":0,
	"scenes":[
		{
			"name":"Scene",
			"nodes":[
				0
			]
		}
	],
	"nodes":[
		{
			"mesh":0,
			"name":"Bush2_Bush1_1_0",
			"rotation":[
				-0.70710688829422,
				0,
				0,
				0.7071066498756409
			],
			"scale":[
				1.1852298974990845,
				1.185230016708374,
				1.185230016708374
			],
			"translation":[
				-5.936589241027832,
				-0.000328691239701584,
				1.378724217414856
			]
		}
	],
	"materials":[
		{
			"doubleSided":true,
			"name":"Bush1_1",
			"pbrMetallicRoughness":{
				"baseColorFactor":[
					0.21730700135231018,
					0.47699400782585144,
					0.05867990106344223,
					1
				],
				"metallicFactor":0,
				"roughnessFactor":0.9781099557876587
			}
		}
	],
	"meshes":[
		{
			"name":"Bush2_Bush1_1_0",
			"primitives":[
				{
					"attributes":{
						"POSITION":0,
						"NORMAL":1,
						"TEXCOORD_0":2
					},
					"indices":3,
					"material":0
				}
			]
		}
	],
	"accessors":[
		{
			"bufferView":0,
			"componentType":5126,
			"count":240,
			"max":[
				0.7754070162773132,
				0.8061134219169617,
				1.2453241348266602
			],
			"min":[
				-0.7546939849853516,
				-0.7753781676292419,
				-0.040700603276491165
			],
			"type":"VEC3"
		},
		{
			"bufferView":1,
			"componentType":5126,
			"count":240,
			"type":"VEC3"
		},
		{
			"bufferView":2,
			"componentType":5126,
			"count":240,
			"type":"VEC2"
		},
		{
			"bufferView":3,
			"componentType":5123,
			"count":240,
			"type":"SCALAR"
		}
	],
	"bufferViews":[
		{
			"buffer":0,
			"byteLength":2880,
			"byteOffset":0,
			"target":34962
		},
		{
			"buffer":0,
			"byteLength":2880,
			"byteOffset":2880,
			"target":34962
		},
		{
			"buffer":0,
			"byteLength":1920,
			"byteOffset":5760,
			"target":34962
		},
		{
			"buffer":0,
			"byteLength":480,
			"byteOffset":7680,
			"target":34963
		}
	],
	"buffers":[
		{
			"byteLength":8160,
			"uri":"bush1.bin"
		}
	]
}
