{
	"asset":{
		"generator":"Khronos glTF Blender I/O v5.0.21",
		"version":"2.0"
	},
	"scene":0,
	"scenes":[
		{
			"name":"Scene",
			"nodes":[
				0,
				1
			]
		}
	],
	"nodes":[
		{
			"mesh":0,
			"name":"Mushroom2_Mushroom4_1_0",
			"rotation":[
				-0.4978540539741516,
				0.502136766910553,
				0.502138614654541,
				0.49785223603248596
			],
			"scale":[
				0.1152636706829071,
				0.11526364833116531,
				0.1152636781334877
			],
			"translation":[
				-2.1124088764190674,
				-0.00010953169112326577,
				4.239355564117432
			]
		},
		{
			"mesh":1,
			"name":"Mushroom2_Mushroom4_2_0",
			"rotation":[
				-0.4978540539741516,
				0.502136766910553,
				0.502138614654541,
				0.49785223603248596
			],
			"scale":[
				0.1152636706829071,
				0.11526364833116531,
				0.1152636781334877
			],
			"translation":[
				-2.1124088764190674,
				-0.00010953169112326577,
				4.239355564117432
			]
		}
	],
	"materials":[
		{
			"doubleSided":true,
			"name":"Mushroom4_1",
			"pbrMetallicRoughness":{
				"baseColorFactor":[
					1,
					0.6774550080299377,
					0.39107099175453186,
					1
				],
				"metallicFactor":0,
				"roughnessFactor":0.9594516158103943
			}
		},
		{
			"doubleSided":true,
			"name":"Mushroom4_2",
			"pbrMetallicRoughness":{
				"baseColorFactor":[
					0.7742760181427002,
					0.2715280055999756,
					0.05924089998006821,
					1
				],
				"metallicFactor":0,
				"roughnessFactor":0.979702889919281
			}
		}
	],
	"meshes":[
		{
			"name":"Mushroom2_Mushroom4_1_0",
			"primitives":[
				{
					"attributes":{
						"POSITION":0,
						"NORMAL":1,
						"TEXCOORD_0":2
					},
					"indices":3,
					"material":0
				}
			]
		},
		{
			"name":"Mushroom2_Mushroom4_2_0",
			"primitives":[
				{
					"attributes":{
						"POSITION":4,
						"NORMAL":5,
						"TEXCOORD_0":6
					},
					"indices":7,
					"material":1
				}
			]
		}
	],
	"accessors":[
		{
			"bufferView":0,
			"componentType":5126,
			"count":80,
			"max":[
				0.9635280966758728,
				0.9829611778259277,
				3.2169930934906006
			],
			"min":[
				-1.006601095199585,
				-0.6156039834022522,
				0
			],
			"type":"VEC3"
		},
		{
			"bufferView":1,
			"componentType":5126,
			"count":80,
			"type":"VEC3"
		},
		{
			"bufferView":2,
			"componentType":5126,
			"count":80,
			"type":"VEC2"
		},
		{
			"bufferView":3,
			"componentType":5123,
			"count":132,
			"type":"SCALAR"
		},
		{
			"bufferView":4,
			"componentType":5126,
			"count":100,
			"max":[
				2.093996524810791,
				2.1527507305145264,
				6.144954681396484
			],
			"min":[
				-2.3527097702026367,
				-2.043583393096924,
				2.2537684440612793
			],
			"type":"VEC3"
		},
		{
			"bufferView":5,
			"componentType":5126,
			"count":100,
			"type":"VEC3"
		},
		{
			"bufferView":6,
			"componentType":5126,
			"count":100,
			"type":"VEC2"
		},
		{
			"bufferView":7,
			"componentType":5123,
			"count":138,
			"type":"SCALAR"
		}
	],
	"bufferViews":[
		{
			"buffer":0,
			"byteLength":960,
			"byteOffset":0,
			"target":34962
		},
		{
			"buffer":0,
			"byteLength":960,
			"byteOffset":960,
			"target":34962
		},
		{
			"buffer":0,
			"byteLength":640,
			"byteOffset":1920,
			"target":34962
		},
		{
			"buffer":0,
			"byteLength":264,
			"byteOffset":2560,
			"target":34963
		},
		{
			"buffer":0,
			"byteLength":1200,
			"byteOffset":2824,
			"target":34962
		},
		{
			"buffer":0,
			"byteLength":1200,
			"byteOffset":4024,
			"target":34962
		},
		{
			"buffer":0,
			"byteLength":800,
			"byteOffset":5224,
			"target":34962
		},
		{
			"buffer":0,
			"byteLength":276,
			"byteOffset":6024,
			"target":34963
		}
	],
	"buffers":[
		{
			"byteLength":6300,
			"uri":"mushroom2.bin"
		}
	]
}
