{
	"asset":{
		"generator":"Khronos glTF Blender I/O v5.0.21",
		"version":"2.0"
	},
	"scene":0,
	"scenes":[
		{
			"name":"Scene",
			"nodes":[
				0,
				1
			]
		}
	],
	"nodes":[
		{
			"mesh":0,
			"name":"Mushroom1_Mushroom3_1_0",
			"rotation":[
				-0.70710688829422,
				0,
				0,
				0.7071066498756409
			],
			"scale":[
				1.26688551902771,
				1.2668856382369995,
				1.2668856382369995
			],
			"translation":[
				-3.497070074081421,
				-0.0005878452211618423,
				4.234497547149658
			]
		},
		{
			"mesh":1,
			"name":"Mushroom1_Mushroom3_2_0",
			"rotation":[
				-0.70710688829422,
				0,
				0,
				0.7071066498756409
			],
			"scale":[
				1.26688551902771,
				1.2668856382369995,
				1.2668856382369995
			],
			"translation":[
				-3.497070074081421,
				-0.0005878452211618423,
				4.234497547149658
			]
		}
	],
	"materials":[
		{
			"doubleSided":true,
			"name":"Mushroom3_1",
			"pbrMetallicRoughness":{
				"baseColorFactor":[
					0.800000011920929,
					0.03090360015630722,
					0.03958730027079582,
					1
				],
				"metallicFactor":0,
				"roughnessFactor":0.9890968799591064
			}
		},
		{
			"doubleSided":true,
			"name":"Mushroom3_2",
			"pbrMetallicRoughness":{
				"baseColorFactor":[
					0.800000011920929,
					0.800000011920929,
					0.800000011920929,
					1
				],
				"metallicFactor":0,
				"roughnessFactor":0.9552786350250244
			}
		}
	],
	"meshes":[
		{
			"name":"Mushroom1_Mushroom3_1_0",
			"primitives":[
				{
					"attributes":{
						"POSITION":0,
						"NORMAL":1,
						"TEXCOORD_0":2
					},
					"indices":3,
					"material":0
				}
			]
		},
		{
			"name":"Mushroom1_Mushroom3_2_0",
			"primitives":[
				{
					"attributes":{
						"POSITION":4,
						"NORMAL":5,
						"TEXCOORD_0":6
					},
					"indices":7,
					"material":1
				}
			]
		}
	],
	"accessors":[
		{
			"bufferView":0,
			"componentType":5126,
			"count":132,
			"max":[
				0.25624141097068787,
				0.2628047466278076,
				0.8148900866508484
			],
			"min":[
				-0.277177095413208,
				-0.2683805227279663,
				0.4632386863231659
			],
			"type":"VEC3"
		},
		{
			"bufferView":1,
			"componentType":5126,
			"count":132,
			"type":"VEC3"
		},
		{
			"bufferView":2,
			"componentType":5126,
			"count":132,
			"type":"VEC2"
		},
		{
			"bufferView":3,
			"componentType":5123,
			"count":132,
			"type":"SCALAR"
		},
		{
			"bufferView":4,
			"componentType":5126,
			"count":558,
			"max":[
				0.22457940876483917,
				0.25912168622016907,
				0.828191876411438
			],
			"min":[
				-0.2915303409099579,
				-0.2776659429073334,
				-0.00028270043549127877
			],
			"type":"VEC3"
		},
		{
			"bufferView":5,
			"componentType":5126,
			"count":558,
			"type":"VEC3"
		},
		{
			"bufferView":6,
			"componentType":5126,
			"count":558,
			"type":"VEC2"
		},
		{
			"bufferView":7,
			"componentType":5123,
			"count":558,
			"type":"SCALAR"
		}
	],
	"bufferViews":[
		{
			"buffer":0,
			"byteLength":1584,
			"byteOffset":0,
			"target":34962
		},
		{
			"buffer":0,
			"byteLength":1584,
			"byteOffset":1584,
			"target":34962
		},
		{
			"buffer":0,
			"byteLength":1056,
			"byteOffset":3168,
			"target":34962
		},
		{
			"buffer":0,
			"byteLength":264,
			"byteOffset":4224,
			"target":34963
		},
		{
			"buffer":0,
			"byteLength":6696,
			"byteOffset":4488,
			"target":34962
		},
		{
			"buffer":0,
			"byteLength":6696,
			"byteOffset":11184,
			"target":34962
		},
		{
			"buffer":0,
			"byteLength":4464,
			"byteOffset":17880,
			"target":34962
		},
		{
			"buffer":0,
			"byteLength":1116,
			"byteOffset":22344,
			"target":34963
		}
	],
	"buffers":[
		{
			"byteLength":23460,
			"uri":"mushroom1.bin"
		}
	]
}
