{
	"asset":{
		"generator":"Khronos glTF Blender I/O v5.0.21",
		"version":"2.0"
	},
	"scene":0,
	"scenes":[
		{
			"name":"Scene",
			"nodes":[
				0
			]
		}
	],
	"nodes":[
		{
			"mesh":0,
			"name":"Rock4_Rock1_1_0",
			"rotation":[
				-0.70710688829422,
				0,
				0,
				0.7071066498756409
			],
			"scale":[
				1.5256420373916626,
				1.5256422758102417,
				1.5256422758102417
			],
			"translation":[
				6.175086498260498,
				-0.0003287042200099677,
				0.9747217893600464
			]
		}
	],
	"materials":[
		{
			"doubleSided":true,
			"name":"Rock1_1",
			"pbrMetallicRoughness":{
				"baseColorFactor":[
					0.28342899680137634,
					0.24782399833202362,
					0.23078100383281708,
					1
				],
				"metallicFactor":0,
				"roughnessFactor":0.985791802406311
			}
		}
	],
	"meshes":[
		{
			"name":"Rock4_Rock1_1_0",
			"primitives":[
				{
					"attributes":{
						"POSITION":0,
						"NORMAL":1,
						"TEXCOORD_0":2
					},
					"indices":3,
					"material":0
				}
			]
		}
	],
	"accessors":[
		{
			"bufferView":0,
			"componentType":5126,
			"count":84,
			"max":[
				0.9837173819541931,
				0.9417728781700134,
				2.2622644901275635
			],
			"min":[
				-1.1431440114974976,
				-0.9863156080245972,
				-0.010880526155233383
			],
			"type":"VEC3"
		},
		{
			"bufferView":1,
			"componentType":5126,
			"count":84,
			"type":"VEC3"
		},
		{
			"bufferView":2,
			"componentType":5126,
			"count":84,
			"type":"VEC2"
		},
		{
			"bufferView":3,
			"componentType":5123,
			"count":84,
			"type":"SCALAR"
		}
	],
	"bufferViews":[
		{
			"buffer":0,
			"byteLength":1008,
			"byteOffset":0,
			"target":34962
		},
		{
			"buffer":0,
			"byteLength":1008,
			"byteOffset":1008,
			"target":34962
		},
		{
			"buffer":0,
			"byteLength":672,
			"byteOffset":2016,
			"target":34962
		},
		{
			"buffer":0,
			"byteLength":168,
			"byteOffset":2688,
			"target":34963
		}
	],
	"buffers":[
		{
			"byteLength":2856,
			"uri":"rock2.bin"
		}
	]
}
