{
	"asset":{
		"generator":"Khronos glTF Blender I/O v5.0.21",
		"version":"2.0"
	},
	"scene":0,
	"scenes":[
		{
			"name":"Scene",
			"nodes":[
				0
			]
		}
	],
	"nodes":[
		{
			"mesh":0,
			"name":"Rock3_Rock1_1.001_0",
			"rotation":[
				-0.7071022987365723,
				0.0008585176547057927,
				0.000858507351949811,
				0.7071102857589722
			],
			"scale":[
				0.5547302961349487,
				0.5547304749488831,
				0.5547303557395935
			],
			"translation":[
				-5.285892486572266,
				0.019103514030575752,
				4.262223243713379
			]
		}
	],
	"materials":[
		{
			"doubleSided":true,
			"name":"Rock1_1.001",
			"pbrMetallicRoughness":{
				"baseColorFactor":[
					0.20791800320148468,
					0.20791800320148468,
					0.20791800320148468,
					1
				],
				"metallicFactor":0,
				"roughnessFactor":0.988377034664154
			}
		}
	],
	"meshes":[
		{
			"name":"Rock3_Rock1_1.001_0",
			"primitives":[
				{
					"attributes":{
						"POSITION":0,
						"NORMAL":1,
						"TEXCOORD_0":2
					},
					"indices":3,
					"material":0
				}
			]
		}
	],
	"accessors":[
		{
			"bufferView":0,
			"componentType":5126,
			"count":60,
			"max":[
				0.8188542127609253,
				0.8501768112182617,
				0.48246514797210693
			],
			"min":[
				-0.8959848880767822,
				-0.8672720193862915,
				-0.35169121623039246
			],
			"type":"VEC3"
		},
		{
			"bufferView":1,
			"componentType":5126,
			"count":60,
			"type":"VEC3"
		},
		{
			"bufferView":2,
			"componentType":5126,
			"count":60,
			"type":"VEC2"
		},
		{
			"bufferView":3,
			"componentType":5123,
			"count":60,
			"type":"SCALAR"
		}
	],
	"bufferViews":[
		{
			"buffer":0,
			"byteLength":720,
			"byteOffset":0,
			"target":34962
		},
		{
			"buffer":0,
			"byteLength":720,
			"byteOffset":720,
			"target":34962
		},
		{
			"buffer":0,
			"byteLength":480,
			"byteOffset":1440,
			"target":34962
		},
		{
			"buffer":0,
			"byteLength":120,
			"byteOffset":1920,
			"target":34963
		}
	],
	"buffers":[
		{
			"byteLength":2040,
			"uri":"rock4.bin"
		}
	]
}
