{
	"asset":{
		"generator":"Khronos glTF Blender I/O v5.0.21",
		"version":"2.0"
	},
	"scene":0,
	"scenes":[
		{
			"name":"Scene",
			"nodes":[
				0
			]
		}
	],
	"nodes":[
		{
			"mesh":0,
			"name":"Rock2_Rock1_1_0",
			"rotation":[
				-0.7071069478988647,
				0,
				0,
				0.7071066498756409
			],
			"scale":[
				0.8708286881446838,
				0.8708288073539734,
				0.8708288073539734
			],
			"translation":[
				-6.675337314605713,
				0.1021042913198471,
				4.328978538513184
			]
		}
	],
	"materials":[
		{
			"doubleSided":true,
			"name":"Rock1_1",
			"pbrMetallicRoughness":{
				"baseColorFactor":[
					0.28342899680137634,
					0.24782399833202362,
					0.23078100383281708,
					1
				],
				"metallicFactor":0,
				"roughnessFactor":0.985791802406311
			}
		}
	],
	"meshes":[
		{
			"name":"Rock2_Rock1_1_0",
			"primitives":[
				{
					"attributes":{
						"POSITION":0,
						"NORMAL":1,
						"TEXCOORD_0":2
					},
					"indices":3,
					"material":0
				}
			]
		}
	],
	"accessors":[
		{
			"bufferView":0,
			"componentType":5126,
			"count":78,
			"max":[
				0.30718499422073364,
				0.28020235896110535,
				0.1659334897994995
			],
			"min":[
				-0.311804860830307,
				-0.29654404520988464,
				-0.1659334897994995
			],
			"type":"VEC3"
		},
		{
			"bufferView":1,
			"componentType":5126,
			"count":78,
			"type":"VEC3"
		},
		{
			"bufferView":2,
			"componentType":5126,
			"count":78,
			"type":"VEC2"
		},
		{
			"bufferView":3,
			"componentType":5123,
			"count":78,
			"type":"SCALAR"
		}
	],
	"bufferViews":[
		{
			"buffer":0,
			"byteLength":936,
			"byteOffset":0,
			"target":34962
		},
		{
			"buffer":0,
			"byteLength":936,
			"byteOffset":936,
			"target":34962
		},
		{
			"buffer":0,
			"byteLength":624,
			"byteOffset":1872,
			"target":34962
		},
		{
			"buffer":0,
			"byteLength":156,
			"byteOffset":2496,
			"target":34963
		}
	],
	"buffers":[
		{
			"byteLength":2652,
			"uri":"rock3.bin"
		}
	]
}
