{
	"asset":{
		"generator":"Khronos glTF Blender I/O v5.0.21",
		"version":"2.0"
	},
	"scene":0,
	"scenes":[
		{
			"name":"Scene",
			"nodes":[
				0
			]
		}
	],
	"nodes":[
		{
			"mesh":0,
			"name":"Rock1_Rock1_1.001_0",
			"rotation":[
				-0.707102358341217,
				0.0008585177129134536,
				0.0008585077011957765,
				0.7071102261543274
			],
			"scale":[
				1.566786527633667,
				1.566786766052246,
				1.566786527633667
			],
			"translation":[
				1.8090707063674927,
				-0.04634413868188858,
				1.2011910676956177
			]
		}
	],
	"materials":[
		{
			"doubleSided":true,
			"name":"Rock1_1.001",
			"pbrMetallicRoughness":{
				"baseColorFactor":[
					0.20791800320148468,
					0.20791800320148468,
					0.20791800320148468,
					1
				],
				"metallicFactor":0,
				"roughnessFactor":0.988377034664154
			}
		}
	],
	"meshes":[
		{
			"name":"Rock1_Rock1_1.001_0",
			"primitives":[
				{
					"attributes":{
						"POSITION":0,
						"NORMAL":1,
						"TEXCOORD_0":2
					},
					"indices":3,
					"material":0
				}
			]
		}
	],
	"accessors":[
		{
			"bufferView":0,
			"componentType":5126,
			"count":84,
			"max":[
				0.8745386600494385,
				0.8506399989128113,
				0.5823184251785278
			],
			"min":[
				-0.807163417339325,
				-0.8672720193862915,
				-0.4688562750816345
			],
			"type":"VEC3"
		},
		{
			"bufferView":1,
			"componentType":5126,
			"count":84,
			"type":"VEC3"
		},
		{
			"bufferView":2,
			"componentType":5126,
			"count":84,
			"type":"VEC2"
		},
		{
			"bufferView":3,
			"componentType":5123,
			"count":84,
			"type":"SCALAR"
		}
	],
	"bufferViews":[
		{
			"buffer":0,
			"byteLength":1008,
			"byteOffset":0,
			"target":34962
		},
		{
			"buffer":0,
			"byteLength":1008,
			"byteOffset":1008,
			"target":34962
		},
		{
			"buffer":0,
			"byteLength":672,
			"byteOffset":2016,
			"target":34962
		},
		{
			"buffer":0,
			"byteLength":168,
			"byteOffset":2688,
			"target":34963
		}
	],
	"buffers":[
		{
			"byteLength":2856,
			"uri":"rock1.bin"
		}
	]
}
