{
	"asset":{
		"generator":"Khronos glTF Blender I/O v5.0.21",
		"version":"2.0"
	},
	"scene":0,
	"scenes":[
		{
			"name":"Scene",
			"nodes":[
				0,
				1
			]
		}
	],
	"nodes":[
		{
			"mesh":0,
			"name":"Tree1_Tree1_0",
			"rotation":[
				-0.6706247925758362,
				-0.22419284284114838,
				-0.2241927981376648,
				0.6706247925758362
			],
			"scale":[
				3.59448504447937,
				3.59448504447937,
				3.5944855213165283
			],
			"translation":[
				-4.810144901275635,
				0,
				-3.9327917098999023
			]
		},
		{
			"mesh":1,
			"name":"Tree1_Tree1_2.001_0",
			"rotation":[
				-0.6706247925758362,
				-0.22419284284114838,
				-0.2241927981376648,
				0.6706247925758362
			],
			"scale":[
				3.59448504447937,
				3.59448504447937,
				3.5944855213165283
			],
			"translation":[
				-4.810144901275635,
				0,
				-3.9327917098999023
			]
		}
	],
	"materials":[
		{
			"doubleSided":true,
			"name":"Tree1",
			"pbrMetallicRoughness":{
				"baseColorFactor":[
					0.08708319813013077,
					0.1921049952507019,
					0.01281690038740635,
					1
				],
				"metallicFactor":0,
				"roughnessFactor":0.9912327527999878
			}
		},
		{
			"doubleSided":true,
			"name":"Tree1_2.001",
			"pbrMetallicRoughness":{
				"baseColorFactor":[
					0.12976999580860138,
					0.06692320108413696,
					0.01792529970407486,
					1
				],
				"metallicFactor":0,
				"roughnessFactor":0.9957097172737122
			}
		}
	],
	"meshes":[
		{
			"name":"Tree1_Tree1_0",
			"primitives":[
				{
					"attributes":{
						"POSITION":0,
						"NORMAL":1,
						"TEXCOORD_0":2
					},
					"indices":3,
					"material":0
				}
			]
		},
		{
			"name":"Tree1_Tree1_2.001_0",
			"primitives":[
				{
					"attributes":{
						"POSITION":4,
						"NORMAL":5,
						"TEXCOORD_0":6
					},
					"indices":7,
					"material":1
				}
			]
		}
	],
	"accessors":[
		{
			"bufferView":0,
			"componentType":5126,
			"count":1044,
			"max":[
				1.6490403413772583,
				1.081220030784607,
				5.727323532104492
			],
			"min":[
				-1.4303865432739258,
				-1.324218511581421,
				1.634526252746582
			],
			"type":"VEC3"
		},
		{
			"bufferView":1,
			"componentType":5126,
			"count":1044,
			"type":"VEC3"
		},
		{
			"bufferView":2,
			"componentType":5126,
			"count":1044,
			"type":"VEC2"
		},
		{
			"bufferView":3,
			"componentType":5123,
			"count":1044,
			"type":"SCALAR"
		},
		{
			"bufferView":4,
			"componentType":5126,
			"count":408,
			"max":[
				1.0104848146438599,
				0.5717383623123169,
				4.6296515464782715
			],
			"min":[
				-0.7171455025672913,
				-0.6701828837394714,
				1.186512872664025e-05
			],
			"type":"VEC3"
		},
		{
			"bufferView":5,
			"componentType":5126,
			"count":408,
			"type":"VEC3"
		},
		{
			"bufferView":6,
			"componentType":5126,
			"count":408,
			"type":"VEC2"
		},
		{
			"bufferView":7,
			"componentType":5123,
			"count":408,
			"type":"SCALAR"
		}
	],
	"bufferViews":[
		{
			"buffer":0,
			"byteLength":12528,
			"byteOffset":0,
			"target":34962
		},
		{
			"buffer":0,
			"byteLength":12528,
			"byteOffset":12528,
			"target":34962
		},
		{
			"buffer":0,
			"byteLength":8352,
			"byteOffset":25056,
			"target":34962
		},
		{
			"buffer":0,
			"byteLength":2088,
			"byteOffset":33408,
			"target":34963
		},
		{
			"buffer":0,
			"byteLength":4896,
			"byteOffset":35496,
			"target":34962
		},
		{
			"buffer":0,
			"byteLength":4896,
			"byteOffset":40392,
			"target":34962
		},
		{
			"buffer":0,
			"byteLength":3264,
			"byteOffset":45288,
			"target":34962
		},
		{
			"buffer":0,
			"byteLength":816,
			"byteOffset":48552,
			"target":34963
		}
	],
	"buffers":[
		{
			"byteLength":49368,
			"uri":"tree_round.bin"
		}
	]
}
