{
	"asset":{
		"generator":"Khronos glTF Blender I/O v5.0.21",
		"version":"2.0"
	},
	"scene":0,
	"scenes":[
		{
			"name":"Scene",
			"nodes":[
				0,
				1
			]
		}
	],
	"nodes":[
		{
			"mesh":0,
			"name":"Stump1_Stump1_1_0",
			"rotation":[
				-0.70710688829422,
				0,
				0,
				0.7071066498756409
			],
			"scale":[
				1.3000516891479492,
				1.3000519275665283,
				1.3000519275665283
			],
			"translation":[
				6.187826156616211,
				-0.00032911947346292436,
				4.131716251373291
			]
		},
		{
			"mesh":1,
			"name":"Stump1_Stump1_2_0",
			"rotation":[
				-0.70710688829422,
				0,
				0,
				0.7071066498756409
			],
			"scale":[
				1.3000516891479492,
				1.3000519275665283,
				1.3000519275665283
			],
			"translation":[
				6.187826156616211,
				-0.00032911947346292436,
				4.131716251373291
			]
		}
	],
	"materials":[
		{
			"doubleSided":true,
			"name":"Stump1_1",
			"pbrMetallicRoughness":{
				"baseColorFactor":[
					0.14566199481487274,
					0.06837700307369232,
					0.030883200466632843,
					1
				],
				"metallicFactor":0,
				"roughnessFactor":0.9954104423522949
			}
		},
		{
			"doubleSided":true,
			"name":"Stump1_2",
			"pbrMetallicRoughness":{
				"baseColorFactor":[
					0.47045499086380005,
					0.20507700741291046,
					0.06571129709482193,
					1
				],
				"metallicFactor":0,
				"roughnessFactor":0.985944390296936
			}
		}
	],
	"meshes":[
		{
			"name":"Stump1_Stump1_1_0",
			"primitives":[
				{
					"attributes":{
						"POSITION":0,
						"NORMAL":1,
						"TEXCOORD_0":2
					},
					"indices":3,
					"material":0
				}
			]
		},
		{
			"name":"Stump1_Stump1_2_0",
			"primitives":[
				{
					"attributes":{
						"POSITION":4,
						"NORMAL":5,
						"TEXCOORD_0":6
					},
					"indices":7,
					"material":1
				}
			]
		}
	],
	"accessors":[
		{
			"bufferView":0,
			"componentType":5126,
			"count":332,
			"max":[
				0.8777860403060913,
				0.6765462160110474,
				1.9270269870758057
			],
			"min":[
				-0.6847468018531799,
				-0.6765462160110474,
				0
			],
			"type":"VEC3"
		},
		{
			"bufferView":1,
			"componentType":5126,
			"count":332,
			"type":"VEC3"
		},
		{
			"bufferView":2,
			"componentType":5126,
			"count":332,
			"type":"VEC2"
		},
		{
			"bufferView":3,
			"componentType":5123,
			"count":336,
			"type":"SCALAR"
		},
		{
			"bufferView":4,
			"componentType":5126,
			"count":42,
			"max":[
				0.8246055245399475,
				0.5242830514907837,
				1.289261817932129
			],
			"min":[
				-0.5242522358894348,
				-0.5242522358894348,
				0.9278489351272583
			],
			"type":"VEC3"
		},
		{
			"bufferView":5,
			"componentType":5126,
			"count":42,
			"type":"VEC3"
		},
		{
			"bufferView":6,
			"componentType":5126,
			"count":42,
			"type":"VEC2"
		},
		{
			"bufferView":7,
			"componentType":5123,
			"count":42,
			"type":"SCALAR"
		}
	],
	"bufferViews":[
		{
			"buffer":0,
			"byteLength":3984,
			"byteOffset":0,
			"target":34962
		},
		{
			"buffer":0,
			"byteLength":3984,
			"byteOffset":3984,
			"target":34962
		},
		{
			"buffer":0,
			"byteLength":2656,
			"byteOffset":7968,
			"target":34962
		},
		{
			"buffer":0,
			"byteLength":672,
			"byteOffset":10624,
			"target":34963
		},
		{
			"buffer":0,
			"byteLength":504,
			"byteOffset":11296,
			"target":34962
		},
		{
			"buffer":0,
			"byteLength":504,
			"byteOffset":11800,
			"target":34962
		},
		{
			"buffer":0,
			"byteLength":336,
			"byteOffset":12304,
			"target":34962
		},
		{
			"buffer":0,
			"byteLength":84,
			"byteOffset":12640,
			"target":34963
		}
	],
	"buffers":[
		{
			"byteLength":12724,
			"uri":"trunk2.bin"
		}
	]
}
