{
	"asset":{
		"generator":"Khronos glTF Blender I/O v5.0.21",
		"version":"2.0"
	},
	"scene":0,
	"scenes":[
		{
			"name":"Scene",
			"nodes":[
				0,
				1
			]
		}
	],
	"nodes":[
		{
			"mesh":0,
			"name":"Branch_Branch1_1_0",
			"rotation":[
				-0.5068031549453735,
				0.4931032061576843,
				0.49310463666915894,
				0.5068014860153198
			],
			"scale":[
				0.8708291053771973,
				0.8708289265632629,
				0.8708290457725525
			],
			"translation":[
				3.135003089904785,
				0.07981155067682266,
				4.329723834991455
			]
		},
		{
			"mesh":1,
			"name":"Branch_Branch1_2_0",
			"rotation":[
				-0.5068031549453735,
				0.4931032061576843,
				0.49310463666915894,
				0.5068014860153198
			],
			"scale":[
				0.8708291053771973,
				0.8708289265632629,
				0.8708290457725525
			],
			"translation":[
				3.135003089904785,
				0.07981155067682266,
				4.329723834991455
			]
		}
	],
	"materials":[
		{
			"doubleSided":true,
			"name":"Branch1_1",
			"pbrMetallicRoughness":{
				"baseColorFactor":[
					0.18446800112724304,
					0.08150529861450195,
					0.03984399884939194,
					1
				],
				"metallicFactor":0,
				"roughnessFactor":0.9943881630897522
			}
		},
		{
			"doubleSided":true,
			"name":"Branch1_2",
			"pbrMetallicRoughness":{
				"baseColorFactor":[
					0.5668380260467529,
					0.3373759984970093,
					0.15602299571037292,
					1
				],
				"metallicFactor":0,
				"roughnessFactor":0.9791449308395386
			}
		}
	],
	"meshes":[
		{
			"name":"Branch_Branch1_1_0",
			"primitives":[
				{
					"attributes":{
						"POSITION":0,
						"NORMAL":1,
						"TEXCOORD_0":2
					},
					"indices":3,
					"material":0
				}
			]
		},
		{
			"name":"Branch_Branch1_2_0",
			"primitives":[
				{
					"attributes":{
						"POSITION":4,
						"NORMAL":5,
						"TEXCOORD_0":6
					},
					"indices":7,
					"material":1
				}
			]
		}
	],
	"accessors":[
		{
			"bufferView":0,
			"componentType":5126,
			"count":150,
			"max":[
				0.27547791600227356,
				1.3319660425186157,
				0.5317587852478027
			],
			"min":[
				-0.2776229679584503,
				-1.4105298519134521,
				-0.2134617567062378
			],
			"type":"VEC3"
		},
		{
			"bufferView":1,
			"componentType":5126,
			"count":150,
			"type":"VEC3"
		},
		{
			"bufferView":2,
			"componentType":5126,
			"count":150,
			"type":"VEC2"
		},
		{
			"bufferView":3,
			"componentType":5123,
			"count":150,
			"type":"SCALAR"
		},
		{
			"bufferView":4,
			"componentType":5126,
			"count":48,
			"max":[
				0.23261816799640656,
				1.4450628757476807,
				0.21099616587162018
			],
			"min":[
				-0.24368174374103546,
				-1.4367114305496216,
				-0.2134617567062378
			],
			"type":"VEC3"
		},
		{
			"bufferView":5,
			"componentType":5126,
			"count":48,
			"type":"VEC3"
		},
		{
			"bufferView":6,
			"componentType":5126,
			"count":48,
			"type":"VEC2"
		},
		{
			"bufferView":7,
			"componentType":5123,
			"count":48,
			"type":"SCALAR"
		}
	],
	"bufferViews":[
		{
			"buffer":0,
			"byteLength":1800,
			"byteOffset":0,
			"target":34962
		},
		{
			"buffer":0,
			"byteLength":1800,
			"byteOffset":1800,
			"target":34962
		},
		{
			"buffer":0,
			"byteLength":1200,
			"byteOffset":3600,
			"target":34962
		},
		{
			"buffer":0,
			"byteLength":300,
			"byteOffset":4800,
			"target":34963
		},
		{
			"buffer":0,
			"byteLength":576,
			"byteOffset":5100,
			"target":34962
		},
		{
			"buffer":0,
			"byteLength":576,
			"byteOffset":5676,
			"target":34962
		},
		{
			"buffer":0,
			"byteLength":384,
			"byteOffset":6252,
			"target":34962
		},
		{
			"buffer":0,
			"byteLength":96,
			"byteOffset":6636,
			"target":34963
		}
	],
	"buffers":[
		{
			"byteLength":6732,
			"uri":"trunk1.bin"
		}
	]
}
